<svg xmlns="http://www.w3.org/2000/svg" viewBox="0 0 128 128" width="128" height="128">
  <defs>
    <linearGradient id="logoGrad" x1="0%" y1="0%" x2="100%" y2="100%">
      <stop offset="0%" style="stop-color:#7cc0ff;stop-opacity:1" />
      <stop offset="100%" style="stop-color:#4a9eff;stop-opacity:1" />
    </linearGradient>
  </defs>

  <!-- Suitcase body -->
  <rect x="24" y="44" width="80" height="64" rx="6" ry="6" fill="url(#logoGrad)" stroke="#2a2a2a" stroke-width="3"/>

  <!-- Suitcase handle top -->
  <path d="M 48 44 L 48 32 C 48 28 52 24 56 24 L 72 24 C 76 24 80 28 80 32 L 80 44"
        fill="none" stroke="#2a2a2a" stroke-width="3" stroke-linecap="round"/>

  <!-- Suitcase handle side -->
  <ellipse cx="64" cy="64" rx="12" ry="6" fill="#5aa7ff" stroke="#2a2a2a" stroke-width="2.5"/>

  <!-- Lock detail -->
  <circle cx="64" cy="80" r="4" fill="#2a2a2a"/>
  <rect x="62" y="80" width="4" height="8" rx="1" fill="#2a2a2a"/>

  <!-- Corner details -->
  <circle cx="32" cy="52" r="3" fill="#2a2a2a"/>
  <circle cx="96" cy="52" r="3" fill="#2a2a2a"/>
  <circle cx="32" cy="100" r="3" fill="#2a2a2a"/>
  <circle cx="96" cy="100" r="3" fill="#2a2a2a"/>

  <!-- Strap detail -->
  <line x1="24" y1="76" x2="104" y2="76" stroke="#4a9eff" stroke-width="2"/>

  <!-- AI Knowledge accent - small dot pattern -->
  <circle cx="40" cy="60" r="1.5" fill="#ffffff" opacity="0.4"/>
  <circle cx="46" cy="58" r="1.5" fill="#ffffff" opacity="0.4"/>
  <circle cx="52" cy="60" r="1.5" fill="#ffffff" opacity="0.4"/>
  <circle cx="76" cy="60" r="1.5" fill="#ffffff" opacity="0.4"/>
  <circle cx="82" cy="58" r="1.5" fill="#ffffff" opacity="0.4"/>
  <circle cx="88" cy="60" r="1.5" fill="#ffffff" opacity="0.4"/>
</svg>
